/* XPM */
static char * unfocus_task_xpm[] = {
"128 26 9 1",
" 	c #000000",
".	c #0C0C0C",
"+	c #00FFF7",
"@	c #0C7D79",
"#	c #09B6B0",
"$	c #060606",
"%	c #0A9D98",
"&	c #0A0A0A",
"*	c #0B0B0B",
"            .+++++++++++++++++++++++++++++++++++++++++++++++++++++++++++++++++++++++++++++++++++++++++++++++++++++++++++++@     ",
"          #++++++++++++++++++++++++++++++++++++++++++++++++++++++++++++++++++++++++++++++++++++++++++++++++++++++++++++++++@    ",
"        $+++%                                                                                             $              &++    ",
"       *+++                                                                                                               ++    ",
"      $++#                                                                                                                ++    ",
"      ++#                                                                                                                 ++    ",
"     #++                                                                                                                  ++    ",
"     ++                                                                                                                   ++    ",
"    .+%                                                                                                                   ++    ",
"    ++                                                                                                                    ++    ",
"    ++                                                                                                                    ++    ",
"    ++                                                                                                                    ++    ",
"    ++                                                                                                                    ++    ",
"    ++                                                                                                                    ++    ",
"    ++                                                                                                                    ++    ",
"    ++                                                                                                                    ++    ",
"    ++                                                                                                                    ++    ",
"    ++                                                                                                                   %+.    ",
"    ++                                                                                                                   ++     ",
"    ++                                                                                                                  ++#     ",
"    ++                                                                                                                 #++      ",
"    ++                                                                                                                #++$      ",
"    ++                                                                                                               +++*       ",
"    ++&                                                                                                            %+++$        ",
"    @++++++++++++++++++++++++++++++++++++++++++++++++++++++++++++++++++++++++++++++++++++++++++++++++++++++++++++++++#          ",
"     @+++++++++++++++++++++++++++++++++++++++++++++++++++++++++++++++++++++++++++++++++++++++++++++++++++++++++++++.            "};
